<svg xmlns="http://www.w3.org/2000/svg" width="1400" height="820" viewBox="0 0 1400 820">
<defs>
      <marker id="arrow" viewBox="0 0 10 10" refX="10" refY="5" markerWidth="8" markerHeight="8" orient="auto-start-reverse">
        <path d="M 0 0 L 10 5 L 0 10 z" fill="#000"/>
      </marker>
    </defs>
<style>
      .shape { fill: #fff; stroke: #000; stroke-width: 2; }
      .thin { stroke-width: 1.5; }
      .fillBlack { fill: #000; stroke: #000; stroke-width: 2; }
      .text { fill: #000; font-family: Arial, Helvetica, sans-serif; font-size: 14px; }
      .textSmall { font-size: 12px; }
      .textTitle { font-size: 16px; font-weight: 700; }
      .dashed { stroke-dasharray: 6 6; }
    </style>
<rect x="0" y="0" width="1400" height="820" fill="#fff" />
<text class="text textTitle" x="700" y="40" text-anchor="middle">Class Diagram: Single Scan Pipeline</text>
<rect class="shape" x="80" y="90" width="360" height="132" rx="4" ry="4" />
<line class="shape thin" x1="80" y1="124" x2="440" y2="124" />
<line class="shape thin" x1="80" y1="182" x2="440" y2="182" />
<text class="text textSmall" x="260" y="112" text-anchor="middle">ScanRequest</text>
<text class="text textSmall" x="90" y="142" text-anchor="start">+user_id: int</text>
<text class="text textSmall" x="90" y="158" text-anchor="start">+image: blob</text>
<text class="text textSmall" x="90" y="174" text-anchor="start">+event_id?: int</text>
<text class="text textSmall" x="90" y="200" text-anchor="start">(none)</text>
<rect class="shape" x="520" y="90" width="360" height="116" rx="4" ry="4" />
<line class="shape thin" x1="520" y1="124" x2="880" y2="124" />
<line class="shape thin" x1="520" y1="166" x2="880" y2="166" />
<text class="text textSmall" x="700" y="112" text-anchor="middle">GeminiClient</text>
<text class="text textSmall" x="530" y="142" text-anchor="start">+apiKey: string</text>
<text class="text textSmall" x="530" y="158" text-anchor="start">+model: string</text>
<text class="text textSmall" x="530" y="184" text-anchor="start">+extractSingle(image): JSON</text>
<rect class="shape" x="960" y="90" width="360" height="114" rx="4" ry="4" />
<line class="shape thin" x1="960" y1="124" x2="1320" y2="124" />
<line class="shape thin" x1="960" y1="164" x2="1320" y2="164" />
<text class="text textSmall" x="1140" y="112" text-anchor="middle">OcrNormalizer</text>
<text class="text textSmall" x="970" y="142" text-anchor="start">(none)</text>
<text class="text textSmall" x="970" y="182" text-anchor="start">+normalize(json): ContactDraft</text>
<rect class="shape" x="80" y="410" width="360" height="180" rx="4" ry="4" />
<line class="shape thin" x1="80" y1="444" x2="440" y2="444" />
<line class="shape thin" x1="80" y1="550" x2="440" y2="550" />
<text class="text textSmall" x="260" y="432" text-anchor="middle">ContactDraft</text>
<text class="text textSmall" x="90" y="462" text-anchor="start">+name</text>
<text class="text textSmall" x="90" y="478" text-anchor="start">+email</text>
<text class="text textSmall" x="90" y="494" text-anchor="start">+phone</text>
<text class="text textSmall" x="90" y="510" text-anchor="start">+company</text>
<text class="text textSmall" x="90" y="526" text-anchor="start">+confidence</text>
<text class="text textSmall" x="90" y="542" text-anchor="start">+name_native?</text>
<text class="text textSmall" x="90" y="568" text-anchor="start">(none)</text>
<rect class="shape" x="520" y="410" width="360" height="132" rx="4" ry="4" />
<line class="shape thin" x1="520" y1="444" x2="880" y2="444" />
<line class="shape thin" x1="520" y1="502" x2="880" y2="502" />
<text class="text textSmall" x="700" y="432" text-anchor="middle">Contact</text>
<text class="text textSmall" x="530" y="462" text-anchor="start">+id: int</text>
<text class="text textSmall" x="530" y="478" text-anchor="start">+fields...</text>
<text class="text textSmall" x="530" y="494" text-anchor="start">+crm_synced: bool</text>
<text class="text textSmall" x="530" y="520" text-anchor="start">(none)</text>
<rect class="shape" x="960" y="410" width="360" height="132" rx="4" ry="4" />
<line class="shape thin" x1="960" y1="444" x2="1320" y2="444" />
<line class="shape thin" x1="960" y1="484" x2="1320" y2="484" />
<text class="text textSmall" x="1140" y="432" text-anchor="middle">ContactService</text>
<text class="text textSmall" x="970" y="462" text-anchor="start">(none)</text>
<text class="text textSmall" x="970" y="502" text-anchor="start">+create(draft)</text>
<text class="text textSmall" x="970" y="518" text-anchor="start">+exportCSV()</text>
<text class="text textSmall" x="970" y="534" text-anchor="start">+search(query)</text>
<line class="shape thin" x1="440" y1="150" x2="520" y2="150" marker-end="url(#arrow)" />
<text class="text textSmall" x="480" y="140" text-anchor="middle">calls</text>
<line class="shape thin" x1="880" y1="150" x2="960" y2="150" marker-end="url(#arrow)" />
<text class="text textSmall" x="920" y="140" text-anchor="middle">returns</text>
<line class="shape thin" x1="440" y1="520" x2="520" y2="520" marker-end="url(#arrow)" />
<text class="text textSmall" x="480" y="510" text-anchor="middle">materializes</text>
<line class="shape thin" x1="840" y1="520" x2="960" y2="520" marker-end="url(#arrow)" />
<text class="text textSmall" x="900" y="510" text-anchor="middle">persists via</text>
</svg>