<svg xmlns="http://www.w3.org/2000/svg" width="1400" height="820" viewBox="0 0 1400 820">
<defs>
      <marker id="arrow" viewBox="0 0 10 10" refX="10" refY="5" markerWidth="8" markerHeight="8" orient="auto-start-reverse">
        <path d="M 0 0 L 10 5 L 0 10 z" fill="#000"/>
      </marker>
    </defs>
<style>
      .shape { fill: #fff; stroke: #000; stroke-width: 2; }
      .thin { stroke-width: 1.5; }
      .fillBlack { fill: #000; stroke: #000; stroke-width: 2; }
      .text { fill: #000; font-family: Arial, Helvetica, sans-serif; font-size: 14px; }
      .textSmall { font-size: 12px; }
      .textTitle { font-size: 16px; font-weight: 700; }
      .dashed { stroke-dasharray: 6 6; }
    </style>
<rect x="0" y="0" width="1400" height="820" fill="#fff" />
<text class="text textTitle" x="700" y="40" text-anchor="middle">Class Diagram: Billing (Razorpay) + Invoices</text>
<rect class="shape" x="70" y="90" width="380" height="164" rx="4" ry="4" />
<line class="shape thin" x1="70" y1="124" x2="450" y2="124" />
<line class="shape thin" x1="70" y1="214" x2="450" y2="214" />
<text class="text textSmall" x="260" y="112" text-anchor="middle">BillingOrder</text>
<text class="text textSmall" x="80" y="142" text-anchor="start">+id: int</text>
<text class="text textSmall" x="80" y="158" text-anchor="start">+user_id: int</text>
<text class="text textSmall" x="80" y="174" text-anchor="start">+plan_id: string</text>
<text class="text textSmall" x="80" y="190" text-anchor="start">+amount_paise: int</text>
<text class="text textSmall" x="80" y="206" text-anchor="start">+razorpay_order_id</text>
<text class="text textSmall" x="80" y="232" text-anchor="start">+markPaid()</text>
<rect class="shape" x="520" y="90" width="340" height="164" rx="4" ry="4" />
<line class="shape thin" x1="520" y1="124" x2="860" y2="124" />
<line class="shape thin" x1="520" y1="214" x2="860" y2="214" />
<text class="text textSmall" x="690" y="112" text-anchor="middle">Invoice</text>
<text class="text textSmall" x="530" y="142" text-anchor="start">+id: int</text>
<text class="text textSmall" x="530" y="158" text-anchor="start">+workspace_id: int</text>
<text class="text textSmall" x="530" y="174" text-anchor="start">+invoice_number: string</text>
<text class="text textSmall" x="530" y="190" text-anchor="start">+amount</text>
<text class="text textSmall" x="530" y="206" text-anchor="start">+status</text>
<text class="text textSmall" x="530" y="232" text-anchor="start">(none)</text>
<rect class="shape" x="900" y="90" width="420" height="164" rx="4" ry="4" />
<line class="shape thin" x1="900" y1="124" x2="1320" y2="124" />
<line class="shape thin" x1="900" y1="214" x2="1320" y2="214" />
<text class="text textSmall" x="1110" y="112" text-anchor="middle">PaymentMethod</text>
<text class="text textSmall" x="910" y="142" text-anchor="start">+id: int</text>
<text class="text textSmall" x="910" y="158" text-anchor="start">+workspace_id: int</text>
<text class="text textSmall" x="910" y="174" text-anchor="start">+brand</text>
<text class="text textSmall" x="910" y="190" text-anchor="start">+last4</text>
<text class="text textSmall" x="910" y="206" text-anchor="start">+is_primary</text>
<text class="text textSmall" x="910" y="232" text-anchor="start">(none)</text>
<rect class="shape" x="70" y="430" width="420" height="118" rx="4" ry="4" />
<line class="shape thin" x1="70" y1="464" x2="490" y2="464" />
<line class="shape thin" x1="70" y1="506" x2="490" y2="506" />
<text class="text textSmall" x="280" y="452" text-anchor="middle">RazorpayClient</text>
<text class="text textSmall" x="80" y="482" text-anchor="start">+keyId</text>
<text class="text textSmall" x="80" y="498" text-anchor="start">+keySecret</text>
<text class="text textSmall" x="80" y="524" text-anchor="start">+createOrder()</text>
<text class="text textSmall" x="80" y="540" text-anchor="start">+verifySignature()</text>
<rect class="shape" x="560" y="430" width="420" height="132" rx="4" ry="4" />
<line class="shape thin" x1="560" y1="464" x2="980" y2="464" />
<line class="shape thin" x1="560" y1="504" x2="980" y2="504" />
<text class="text textSmall" x="770" y="452" text-anchor="middle">BillingService</text>
<text class="text textSmall" x="570" y="482" text-anchor="start">(none)</text>
<text class="text textSmall" x="570" y="522" text-anchor="start">+createOrder(user, plan)</text>
<text class="text textSmall" x="570" y="538" text-anchor="start">+verifyPayment(payload)</text>
<text class="text textSmall" x="570" y="554" text-anchor="start">+upgradeTier(user, plan)</text>
<rect class="shape" x="1040" y="430" width="320" height="132" rx="4" ry="4" />
<line class="shape thin" x1="1040" y1="464" x2="1360" y2="464" />
<line class="shape thin" x1="1040" y1="504" x2="1360" y2="504" />
<text class="text textSmall" x="1200" y="452" text-anchor="middle">BillingAPI</text>
<text class="text textSmall" x="1050" y="482" text-anchor="start">(none)</text>
<text class="text textSmall" x="1050" y="522" text-anchor="start">+POST /billing/create-order</text>
<text class="text textSmall" x="1050" y="538" text-anchor="start">+POST /billing/verify-payment</text>
<text class="text textSmall" x="1050" y="554" text-anchor="start">+GET /workspace/billing/overview</text>
<line class="shape thin" x1="450" y1="150" x2="520" y2="150" marker-end="url(#arrow)" />
<text class="text textSmall" x="485" y="140" text-anchor="middle">creates</text>
<line class="shape thin" x1="860" y1="150" x2="900" y2="150" marker-end="url(#arrow)" />
<text class="text textSmall" x="880" y="140" text-anchor="middle">stores</text>
<line class="shape thin" x1="280" y1="430" x2="280" y2="350" marker-end="url(#arrow)" />
<line class="shape thin" x1="280" y1="350" x2="770" y2="350" marker-end="url(#arrow)" />
<line class="shape thin" x1="770" y1="350" x2="770" y2="430" marker-end="url(#arrow)" />
<text class="text textSmall" x="520" y="340" text-anchor="middle">used by</text>
<line class="shape thin" x1="770" y1="430" x2="770" y2="390" marker-end="url(#arrow)" />
<line class="shape thin" x1="770" y1="390" x2="1200" y2="390" marker-end="url(#arrow)" />
<line class="shape thin" x1="1200" y1="390" x2="1200" y2="430" marker-end="url(#arrow)" />
<text class="text textSmall" x="980" y="380" text-anchor="middle">exposed via</text>
</svg>