<svg xmlns="http://www.w3.org/2000/svg" width="1400" height="820" viewBox="0 0 1400 820">
<defs>
      <marker id="arrow" viewBox="0 0 10 10" refX="10" refY="5" markerWidth="8" markerHeight="8" orient="auto-start-reverse">
        <path d="M 0 0 L 10 5 L 0 10 z" fill="#000"/>
      </marker>
    </defs>
<style>
      .shape { fill: #fff; stroke: #000; stroke-width: 2; }
      .thin { stroke-width: 1.5; }
      .fillBlack { fill: #000; stroke: #000; stroke-width: 2; }
      .text { fill: #000; font-family: Arial, Helvetica, sans-serif; font-size: 14px; }
      .textSmall { font-size: 12px; }
      .textTitle { font-size: 16px; font-weight: 700; }
      .dashed { stroke-dasharray: 6 6; }
    </style>
<rect x="0" y="0" width="1400" height="820" fill="#fff" />
<text class="text textTitle" x="700" y="40" text-anchor="middle">Class Diagram: Group Scan + Data Quality</text>
<rect class="shape" x="70" y="90" width="360" height="150" rx="4" ry="4" />
<line class="shape thin" x1="70" y1="124" x2="430" y2="124" />
<line class="shape thin" x1="70" y1="198" x2="430" y2="198" />
<text class="text textSmall" x="250" y="112" text-anchor="middle">GroupScanJob</text>
<text class="text textSmall" x="80" y="142" text-anchor="start">+id: string</text>
<text class="text textSmall" x="80" y="158" text-anchor="start">+user_id: int</text>
<text class="text textSmall" x="80" y="174" text-anchor="start">+image: blob</text>
<text class="text textSmall" x="80" y="190" text-anchor="start">+status</text>
<text class="text textSmall" x="80" y="216" text-anchor="start">+start()</text>
<text class="text textSmall" x="80" y="232" text-anchor="start">+complete()</text>
<rect class="shape" x="520" y="90" width="360" height="114" rx="4" ry="4" />
<line class="shape thin" x1="520" y1="124" x2="880" y2="124" />
<line class="shape thin" x1="520" y1="164" x2="880" y2="164" />
<text class="text textSmall" x="700" y="112" text-anchor="middle">GeminiClient</text>
<text class="text textSmall" x="530" y="142" text-anchor="start">+model: string</text>
<text class="text textSmall" x="530" y="182" text-anchor="start">+extractMulti(image): ContactDraft[]</text>
<rect class="shape" x="970" y="90" width="360" height="166" rx="4" ry="4" />
<line class="shape thin" x1="970" y1="124" x2="1330" y2="124" />
<line class="shape thin" x1="970" y1="214" x2="1330" y2="214" />
<text class="text textSmall" x="1150" y="112" text-anchor="middle">DedupeQueueItem</text>
<text class="text textSmall" x="980" y="142" text-anchor="start">+workspace_id: int</text>
<text class="text textSmall" x="980" y="158" text-anchor="start">+candidate_a</text>
<text class="text textSmall" x="980" y="174" text-anchor="start">+candidate_b</text>
<text class="text textSmall" x="980" y="190" text-anchor="start">+score</text>
<text class="text textSmall" x="980" y="206" text-anchor="start">+status</text>
<text class="text textSmall" x="980" y="232" text-anchor="start">+merge()</text>
<text class="text textSmall" x="980" y="248" text-anchor="start">+dismiss()</text>
<rect class="shape" x="70" y="410" width="360" height="116" rx="4" ry="4" />
<line class="shape thin" x1="70" y1="444" x2="430" y2="444" />
<line class="shape thin" x1="70" y1="486" x2="430" y2="486" />
<text class="text textSmall" x="250" y="432" text-anchor="middle">ContactDraft</text>
<text class="text textSmall" x="80" y="462" text-anchor="start">+fields...</text>
<text class="text textSmall" x="80" y="478" text-anchor="start">+confidence</text>
<text class="text textSmall" x="80" y="504" text-anchor="start">(none)</text>
<rect class="shape" x="520" y="410" width="360" height="132" rx="4" ry="4" />
<line class="shape thin" x1="520" y1="444" x2="880" y2="444" />
<line class="shape thin" x1="520" y1="502" x2="880" y2="502" />
<text class="text textSmall" x="700" y="432" text-anchor="middle">Contact</text>
<text class="text textSmall" x="530" y="462" text-anchor="start">+id: int</text>
<text class="text textSmall" x="530" y="478" text-anchor="start">+event_id?</text>
<text class="text textSmall" x="530" y="494" text-anchor="start">+crm_synced?</text>
<text class="text textSmall" x="530" y="520" text-anchor="start">(none)</text>
<rect class="shape" x="970" y="410" width="360" height="116" rx="4" ry="4" />
<line class="shape thin" x1="970" y1="444" x2="1330" y2="444" />
<line class="shape thin" x1="970" y1="484" x2="1330" y2="484" />
<text class="text textSmall" x="1150" y="432" text-anchor="middle">BulkContactService</text>
<text class="text textSmall" x="980" y="462" text-anchor="start">(none)</text>
<text class="text textSmall" x="980" y="502" text-anchor="start">+createMany(drafts[])</text>
<text class="text textSmall" x="980" y="518" text-anchor="start">+enqueueDedupe()</text>
<line class="shape thin" x1="430" y1="150" x2="520" y2="150" marker-end="url(#arrow)" />
<text class="text textSmall" x="475" y="140" text-anchor="middle">calls</text>
<line class="shape thin" x1="700" y1="180" x2="700" y2="410" marker-end="url(#arrow)" />
<text class="text textSmall" x="712" y="300" text-anchor="start">produces</text>
<line class="shape thin" x1="840" y1="520" x2="970" y2="520" marker-end="url(#arrow)" />
<text class="text textSmall" x="905" y="510" text-anchor="middle">enqueues</text>
</svg>